<?xml version="1.0" encoding="UTF-8" standalone="no"?>
<!DOCTYPE svg PUBLIC "-//W3C//DTD SVG 20010904//EN" "http://www.w3.org/TR/2001/REC-SVG-20010904/DTD/svg10.dtd">
<svg version="1.0" xmlns="http://www.w3.org/2000/svg" width="613.000000pt" height="612.000000pt" viewBox="0 0 613.000000 612.000000" preserveAspectRatio="xMidYMid meet">

<g transform="translate(0.000000,612.000000) scale(0.100000,-0.100000)" fill="current" stroke="none">
<path d="M2880 5389 c-534 -51 -1020 -272 -1404 -639 -327 -314 -550 -693 -661 -1124 -87 -339 -96 -730 -26 -1061 169 -789 707 -1424 1456 -1719 259 -102 493 -147 797 -153 294 -7 465 15 730 93 524 154 984 496 1291 959 179 269 298 570 358 906 26 144 37 486 20 639 -88 806 -575 1504 -1300 1864 -388 192 -837 276 -1261 235z m470 -90 c415 -49 804 -206 1136 -460 210 -161 438 -418 569 -644 291 -502 381 -1071 260 -1644 -64 -307 -232 -660 -434 -914 -662 -832 -1800 -1099 -2756 -646 -461 218 -830 581 -1057 1039 -167 336 -238 640 -238 1017 0 399 92 753 289 1108 174 313 430 588 736 788 438 286 985 416 1495 356z"/>
<path d="M2918 5240 c-615 -47 -1207 -374 -1580 -870 -322 -429 -475 -948 -438 -1483 37 -531 268 -1035 642 -1404 130 -129 199 -185 336 -277 235 -157 499 -267 778 -325 277 -57 623 -56 904 4 774 164 1419 755 1646 1508 66 220 94 406 94 644 0 284 -43 528 -136 775 -167 441 -456 804 -854 1072 -180 122 -484 253 -707 305 -200 47 -475 67 -685 51z m122 -433 c25 -127 33 -190 26 -193 -6 -2 -45 -11 -86 -19 -70 -15 -76 -15 -97 2 -12 10 -68 55 -123 101 -55 46 -100 77 -100 69 0 -8 9 -60 21 -116 11 -57 19 -105 16 -107 -8 -8 -127 -28 -132 -22 -9 8 -77 369 -71 375 7 7 125 32 153 33 13 0 67 -38 138 -96 64 -53 117 -95 119 -93 2 2 -7 54 -19 114 -13 61 -21 112 -18 115 6 7 105 28 122 26 11 -1 25 -53 51 -189z m369 158 c156 -30 220 -55 261 -101 69 -79 45 -228 -45 -284 -57 -35 -122 -35 -300 0 -88 17 -161 33 -163 35 -2 1 14 89 34 194 35 181 39 192 58 187 12 -2 81 -16 155 -31z m-1075 -238 c75 -116 86 -140 86 -187 0 -82 -71 -168 -186 -224 -101 -50 -187 -45 -242 14 -29 31 -147 209 -141 214 26 20 121 78 124 75 2 -2 27 -40 55 -84 29 -44 61 -90 73 -102 34 -38 104 -25 152 26 32 37 24 78 -33 165 -81 122 -80 109 -15 150 32 20 61 36 65 36 5 0 32 -37 62 -83z m1651 51 c36 -18 64 -35 63 -38 -29 -57 -172 -336 -175 -339 -6 -7 -135 59 -131 67 21 45 173 342 175 342 2 0 32 -14 68 -32z m432 -296 l62 -57 -61 -207 c-34 -115 -64 -208 -67 -208 -3 1 -30 23 -60 50 -52 48 -53 49 -42 83 12 35 11 36 -39 83 -80 75 -85 77 -126 64 -36 -12 -37 -12 -87 38 -28 28 -49 53 -47 55 6 4 392 155 400 156 3 0 33 -26 67 -57z m-2576 -212 c85 -57 153 -107 151 -113 -2 -7 -52 -84 -68 -105 -1 -2 -29 14 -61 35 -32 22 -76 50 -98 63 l-39 24 21 -34 c61 -103 103 -180 103 -191 0 -6 -12 -32 -27 -56 l-28 -45 -95 6 c-52 4 -113 9 -135 12 -39 6 -38 4 45 -51 47 -31 92 -60 100 -65 11 -7 7 -18 -24 -65 -23 -36 -42 -55 -51 -51 -25 9 -315 201 -315 208 0 3 22 41 50 82 45 68 53 75 77 71 63 -10 246 -26 250 -21 3 3 -24 57 -61 120 -36 63 -66 120 -66 126 0 20 95 160 106 156 6 -2 80 -50 165 -106z m1456 5 c403 -65 754 -329 929 -699 46 -98 88 -230 104 -329 15 -94 12 -343 -5 -433 -91 -476 -446 -857 -915 -981 -78 -21 -125 -27 -265 -30 -187 -6 -263 2 -401 42 -339 99 -637 357 -783 680 -155 342 -148 731 19 1070 121 244 291 420 530 548 129 69 274 117 430 140 65 10 274 5 357 -8z m1462 -202 c18 -32 30 -62 27 -68 -2 -5 -48 -33 -102 -62 -152 -80 -144 -65 -90 -163 66 -118 66 -121 12 -147 l-44 -22 -16 24 c-35 54 -166 308 -161 313 8 8 329 181 337 182 3 0 20 -26 37 -57z m-3306 -1099 l48 -7 -35 -36 c-33 -34 -35 -38 -26 -76 5 -22 7 -41 5 -44 -3 -2 -23 4 -46 14 -39 18 -43 18 -71 2 -45 -26 -51 -22 -44 26 6 39 4 46 -24 72 -16 16 -30 32 -30 36 0 4 20 10 43 13 38 6 47 12 67 48 l23 42 21 -42 c18 -39 24 -42 69 -48z m3407 47 c17 -35 25 -41 66 -47 l46 -6 -33 -34 c-30 -31 -31 -36 -25 -85 l7 -52 -36 22 c-42 25 -63 26 -89 6 -37 -28 -47 -19 -40 33 6 44 4 49 -27 76 -18 16 -29 31 -23 32 5 1 26 5 47 9 30 5 41 13 57 45 11 22 22 40 25 40 3 0 14 -18 25 -39z m-3720 -58 c6 -7 20 -13 30 -13 25 0 25 -12 2 -33 -13 -12 -17 -26 -14 -47 5 -34 3 -35 -31 -19 -20 9 -30 8 -52 -7 l-28 -18 4 35 c3 24 -1 41 -13 54 -24 25 -23 35 7 35 17 0 29 9 41 32 16 30 17 31 30 12 7 -10 18 -25 24 -31z m502 17 c12 -21 25 -30 43 -30 30 0 32 -11 4 -36 -15 -14 -19 -26 -15 -47 5 -27 4 -29 -17 -22 -12 4 -29 7 -37 7 -8 0 -25 -3 -37 -7 -21 -7 -22 -5 -17 24 5 25 2 37 -16 56 l-23 25 27 0 c19 0 32 8 44 30 9 16 19 30 22 30 3 0 13 -14 22 -30z m2948 16 c0 -23 29 -46 57 -46 l26 0 -21 -23 c-13 -14 -22 -36 -22 -55 0 -35 -2 -37 -31 -22 -14 8 -27 6 -50 -6 l-32 -16 7 34 c5 27 2 39 -14 53 -27 24 -25 35 5 35 18 0 31 9 43 30 18 32 32 39 32 16z m540 -33 c6 -7 20 -13 30 -13 25 0 25 -12 1 -34 -15 -14 -18 -26 -14 -54 l6 -36 -28 18 c-22 15 -32 16 -52 7 -33 -15 -33 -15 -33 23 0 18 -7 39 -15 46 -22 18 -18 30 10 30 17 0 29 9 41 32 16 30 17 31 30 12 7 -10 18 -25 24 -31z m-3340 -556 c191 -393 523 -664 955 -780 100 -26 129 -30 310 -34 226 -6 316 5 482 58 388 123 693 387 875 757 l50 102 294 0 c236 0 294 -3 294 -13 0 -14 -46 -149 -79 -235 -69 -174 -214 -405 -356 -565 -293 -331 -698 -561 -1140 -648 -108 -22 -146 -24 -380 -24 -266 1 -286 3 -486 49 -187 44 -456 162 -624 274 -309 207 -539 468 -700 797 -59 120 -135 318 -135 351 0 12 48 14 295 14 l294 0 51 -103z"/>
<path d="M3355 4848 c-12 -51 -34 -162 -32 -164 9 -9 159 -26 180 -20 35 8 59 46 59 92 0 53 -31 80 -113 98 -87 20 -88 20 -94 -6z"/>
<path d="M4275 4382 c-33 -14 -62 -27 -64 -29 -8 -6 73 -83 83 -80 9 3 48 116 44 128 -2 3 -30 -5 -63 -19z"/>
<path d="M2810 4198 c0 -10 9 -41 19 -70 10 -29 21 -67 24 -84 5 -28 2 -32 -34 -48 -76 -34 -225 -163 -281 -244 -11 -16 -29 -26 -55 -29 -61 -8 -191 -59 -260 -103 -35 -22 -68 -40 -72 -40 -7 0 -31 69 -45 125 -2 9 -96 -155 -96 -169 0 -4 -9 -27 -20 -51 -43 -94 -71 -234 -77 -382 -3 -79 -3 -143 0 -143 4 0 13 13 21 28 18 36 70 92 85 92 6 0 11 -8 11 -17 0 -10 6 -29 14 -43 7 -14 23 -45 36 -70 31 -60 105 -147 141 -166 27 -13 29 -19 29 -69 0 -89 29 -214 68 -288 39 -76 113 -149 180 -179 61 -28 166 -48 249 -48 61 0 74 -3 86 -21 55 -78 188 -191 240 -204 15 -4 27 -10 27 -14 0 -3 -16 -30 -35 -60 -19 -29 -35 -55 -35 -57 0 -2 44 -4 99 -4 120 0 240 20 354 59 92 31 239 102 244 118 2 5 -20 22 -49 38 -29 15 -55 30 -57 32 -3 2 5 13 16 26 66 71 142 248 143 332 0 23 6 33 28 43 51 23 157 110 196 161 21 28 43 48 49 44 5 -3 7 -2 4 4 -4 6 -1 24 5 40 11 28 13 29 42 20 17 -6 54 -21 82 -34 56 -25 64 -27 64 -15 0 11 -59 38 -120 55 l-45 13 4 90 c4 109 -22 216 -74 309 -31 56 -32 62 -19 87 26 49 38 120 38 227 l1 103 42 -5 c26 -3 58 -16 80 -33 l37 -28 -38 69 c-84 154 -193 290 -302 375 -57 45 -199 140 -208 140 -2 0 0 -17 5 -37 5 -21 9 -53 9 -70 l0 -33 -67 0 c-64 0 -168 -16 -266 -41 -41 -10 -47 -8 -110 26 -88 48 -153 65 -258 65 l-86 0 -22 83 c-25 89 -40 125 -41 95z m915 -284 c137 -90 284 -263 291 -341 2 -21 6 -48 9 -59 8 -36 -14 -175 -35 -229 l-20 -50 -192 -28 -191 -27 -21 26 c-61 79 -155 181 -233 252 l-86 80 17 169 c10 92 20 175 22 184 3 9 30 21 77 32 97 23 108 24 215 26 92 1 95 0 147 -35z m-1102 -352 c60 -81 112 -153 117 -161 6 -11 35 -6 161 29 85 23 196 54 246 68 l93 25 52 -48 c115 -104 153 -143 217 -224 36 -46 65 -89 64 -95 -3 -19 -61 -275 -83 -372 -12 -50 -26 -91 -33 -92 -7 0 -66 -16 -132 -35 -66 -19 -141 -40 -167 -47 -27 -7 -48 -17 -48 -22 0 -5 7 -5 18 1 9 5 33 12 52 15 52 8 177 41 242 63 l56 19 144 -107 c78 -59 143 -114 142 -121 -3 -68 -36 -176 -76 -243 -62 -108 -77 -122 -178 -161 -136 -52 -383 -98 -405 -75 -4 3 -10 6 -13 6 -37 3 -188 123 -236 187 l-28 39 66 162 c36 89 66 168 66 174 0 7 -77 91 -170 187 l-171 174 16 89 c22 117 40 181 82 286 38 94 40 125 5 55 -33 -65 -68 -180 -93 -308 -12 -63 -23 -117 -25 -118 -1 -2 -80 -33 -174 -68 l-173 -65 -40 28 c-51 36 -107 110 -149 198 -29 61 -33 80 -32 145 1 81 31 207 71 300 13 30 29 67 36 81 12 30 117 105 175 127 50 18 163 50 182 51 8 0 64 -66 123 -147z"/>
<path d="M3016 2574 c-26 -9 -47 -17 -45 -19 7 -6 114 16 124 26 13 13 -22 10 -79 -7z"/>
<path d="M2314 2265 c-32 -30 -55 -58 -51 -61 4 -4 23 9 42 29 20 21 43 37 52 37 9 0 13 3 10 7 -4 3 0 15 10 25 37 41 -9 14 -63 -37z"/>
<path d="M4000 1714 c-58 -41 -104 -80 -102 -87 2 -6 9 -18 17 -26 11 -11 19 -9 50 12 l38 26 17 -22 c9 -12 32 -44 50 -72 18 -27 34 -52 36 -54 1 -1 19 9 38 24 l35 27 -51 75 c-41 61 -48 77 -36 84 8 5 25 17 38 27 19 16 21 22 11 40 -6 12 -17 22 -24 21 -7 0 -59 -34 -117 -75z"/>
<path d="M2050 1642 c-33 -53 -60 -101 -60 -108 0 -6 16 -19 36 -30 31 -17 36 -17 44 -4 33 58 33 57 100 16 50 -31 64 -36 71 -25 16 25 10 33 -51 72 -52 34 -58 41 -47 57 12 21 19 18 117 -47 l35 -23 17 22 c10 13 18 25 18 28 0 5 -103 71 -182 117 l-37 22 -61 -97z"/>
<path d="M3765 1580 c-55 -27 -104 -51 -110 -53 -7 -3 67 -187 91 -225 5 -8 234 109 234 120 -1 38 -16 39 -94 3 -43 -19 -82 -33 -87 -30 -24 15 -4 38 56 66 47 22 65 36 65 50 0 26 -16 24 -91 -10 -61 -28 -78 -27 -79 2 0 5 34 24 75 43 41 19 75 37 75 40 0 11 -21 44 -28 43 -4 0 -52 -23 -107 -49z"/>
<path d="M2306 1487 c-21 -56 -41 -107 -43 -113 -3 -8 55 -44 73 -44 3 0 12 16 20 35 16 39 23 41 63 20 21 -10 31 -26 40 -58 13 -52 27 -66 75 -74 32 -5 36 -3 36 16 0 11 -5 21 -11 21 -5 0 -17 16 -25 35 -16 40 -17 48 -5 41 5 -3 22 -1 39 5 52 18 60 81 15 121 -14 13 -219 98 -236 98 -1 0 -20 -46 -41 -103z m172 -2 c32 -13 42 -22 42 -40 0 -13 -6 -25 -12 -28 -12 -4 -104 25 -114 36 -10 9 17 59 29 54 6 -3 31 -13 55 -22z"/>
<path d="M3427 1463 c-90 -24 -98 -27 -93 -47 3 -11 16 -65 28 -118 12 -54 27 -98 33 -98 27 1 230 61 251 75 35 22 34 81 -1 97 -26 12 -31 23 -15 33 16 10 11 51 -8 68 -25 23 -77 20 -195 -10z m123 -54 c0 -13 -12 -21 -42 -29 -24 -6 -48 -13 -55 -15 -13 -4 -29 32 -18 43 10 11 89 29 103 24 6 -2 12 -12 12 -23z m28 -91 c-2 -17 -14 -25 -57 -35 -56 -15 -70 -9 -71 24 0 14 50 31 98 32 29 1 33 -2 30 -21z"/>
<path d="M2665 1448 c-12 -56 -36 -211 -32 -214 5 -5 216 -44 240 -44 11 0 17 8 17 24 0 26 7 23 -143 52 -20 4 -27 10 -23 21 3 8 6 18 6 22 0 4 30 2 68 -5 90 -18 92 -18 92 10 0 21 -6 24 -75 35 -65 11 -75 15 -75 33 0 19 4 20 45 14 149 -21 135 -22 135 8 0 14 -1 26 -3 26 -2 0 -52 9 -112 20 -135 25 -134 25 -140 -2z"/>
<path d="M2957 1424 c-4 -4 -7 -61 -7 -126 l0 -118 130 0 130 0 0 30 0 30 -85 0 c-78 0 -85 2 -85 20 0 18 7 20 80 20 79 0 80 0 80 25 0 25 -1 25 -80 25 -73 0 -80 2 -80 20 0 18 7 20 86 20 l85 0 -3 28 -3 27 -121 3 c-66 1 -123 -1 -127 -4z"/>
</g>
</svg>
